<svg width="396" height="78" viewBox="0 0 396 78" fill="none" xmlns="http://www.w3.org/2000/svg">
<path d="M113.536 52.1712C113.226 52.0538 113.183 51.8992 113.183 51.7672C113.183 51.5538 113.235 51.4951 113.271 51.4511C113.307 51.3991 113.41 51.2898 113.721 51.1351C117.813 48.8231 119.894 45.3883 119.894 40.9402C119.894 36.492 118.455 33.3439 115.616 30.9798C112.792 28.5878 108.956 27.369 104.206 27.369H84.7423V76.9786H104.191C109.118 76.9786 113.055 75.7599 115.873 73.3679C118.758 70.9598 120.217 67.4957 120.217 63.0635C120.217 57.6034 117.967 53.9326 113.528 52.1645L113.536 52.1712ZM110.173 46.7697C108.684 47.9071 106.441 48.4804 103.513 48.4804H92.177V34.0879H103.513C106.441 34.0879 108.684 34.66 110.18 35.7987C111.691 36.9147 112.459 38.7561 112.459 41.2815C112.459 43.8069 111.693 45.6483 110.18 46.7644L110.173 46.7697ZM92.177 55.1953H103.513C106.626 55.1953 108.978 55.79 110.519 56.9713C112.032 58.0874 112.798 60.0247 112.798 62.7262C112.798 65.4276 112.032 67.3943 110.519 68.5464C108.985 69.6837 106.626 70.2571 103.513 70.2571H92.177V55.1886V55.1953Z" fill="#000000"/>
<path d="M152.454 59.6647C152.454 63.7462 151.51 66.865 149.658 68.9344C147.859 70.9451 145.211 71.9651 141.804 71.9651C138.803 71.9651 136.48 71.1504 134.9 69.5357C133.32 67.921 132.518 65.5143 132.518 62.3875V40.9855H125.769V63.4088C125.769 68.0103 127.089 71.6291 129.685 74.1692C132.282 76.7093 135.896 78 140.432 78C145.336 78 149.141 76.3333 151.723 73.0825L152.062 72.7452C152.136 72.6718 152.211 72.6278 152.262 72.6278C152.416 72.6278 152.445 72.6571 152.445 72.8118V76.988H159.194V40.9868H152.445V59.6661H152.454V59.6647Z" fill="#000000"/>
<path d="M173.591 40.9855H166.842V76.9786H173.591V40.9855Z" fill="#000000"/>
<path d="M170.213 27.2451C167.831 27.2451 165.891 29.1758 165.891 31.5532V31.8252C165.891 34.1959 167.831 36.1333 170.213 36.1333C172.596 36.1333 174.536 34.2026 174.536 31.8252V31.5532C174.536 29.1838 172.596 27.2451 170.213 27.2451Z" fill="#000000"/>
<path d="M209.634 45.1616C209.634 45.4109 209.56 45.411 209.449 45.411C209.383 45.411 209.192 45.411 208.925 45.0363C206.101 41.6668 202.059 39.9575 196.934 39.9575C193.887 39.9575 190.989 40.6761 188.312 42.1002C185.628 43.4802 183.402 45.623 181.697 48.479C180.037 51.3271 179.197 54.8566 179.197 58.9754C179.197 63.0929 180.037 66.6236 181.704 69.4784C183.408 72.3265 185.635 74.4919 188.32 75.9226C190.997 77.3026 193.895 78 196.941 78C202.073 78 206.108 76.2893 208.948 72.9065C209.199 72.5545 209.397 72.5545 209.464 72.5545C209.567 72.5545 209.647 72.5545 209.647 72.8038V76.9799H216.396V27.3704H209.647V45.1616H209.634ZM206.64 49.4551C208.852 51.7005 209.973 54.9086 209.973 58.9821C209.973 63.0555 208.852 66.2929 206.633 68.5823C204.465 70.8277 201.544 71.9665 197.952 71.9665C194.361 71.9665 191.411 70.8291 189.206 68.5904C187.038 66.301 185.931 63.0635 185.931 58.99C185.931 54.9166 187.03 51.7018 189.199 49.4564C191.411 47.167 194.353 46.007 197.945 46.007C201.536 46.007 204.457 47.167 206.626 49.4564H206.64V49.4551Z" fill="#000000"/>
<path d="M230.712 27.3704H223.963V76.9799H230.712V27.3704Z" fill="#000000"/>
<path d="M254.091 35.4733C256.768 33.8732 259.918 33.0652 263.451 33.0652C268.23 33.0652 271.888 34.2546 274.329 36.588C276.771 38.9294 278.194 42.1215 278.548 46.071L278.571 46.335H285.989L285.974 46.027C285.835 42.6362 284.927 39.4134 283.268 36.4347C281.608 33.4479 279.078 31.0038 275.768 29.1758C272.5 27.297 268.467 26.3423 263.783 26.3423C258.694 26.3423 254.159 27.4291 250.302 29.5798C246.436 31.6865 243.406 34.7253 241.289 38.6147C239.223 42.4975 238.176 47.055 238.176 52.1631C238.176 57.2713 239.201 61.8301 241.222 65.7116C243.294 69.601 246.304 72.6691 250.168 74.8199C254.025 76.9186 258.605 77.9906 263.79 77.9906C270.36 77.9906 275.56 76.2946 279.247 72.9412C282.987 69.5864 284.889 64.9036 284.889 59.0394V53.9085H259.394V60.6248H277.456C277.389 63.7955 276.297 66.3716 274.204 68.2877C272.035 70.2691 268.651 71.2744 264.145 71.2744C260.295 71.2744 256.931 70.4891 254.166 68.933C251.4 67.333 249.254 65.0796 247.787 62.2462C246.356 59.3474 245.626 55.9566 245.626 52.1618C245.626 48.367 246.371 45.0496 247.852 42.1508C249.328 39.2667 251.43 37.0134 254.107 35.464L254.091 35.4733Z" fill="#000000"/>
<path d="M317.526 59.6647C317.526 63.7462 316.581 66.865 314.731 68.9344C312.931 70.9451 310.284 71.9651 306.875 71.9651C303.866 71.9651 301.551 71.1504 299.973 69.5357C298.394 67.921 297.59 65.5143 297.59 62.3875V40.9855H290.842V63.4088C290.842 68.0103 292.162 71.6291 294.766 74.1692C297.363 76.7093 300.976 78 305.511 78C310.417 78 314.228 76.3333 316.802 73.0825L317.143 72.7452C317.216 72.6718 317.29 72.6278 317.341 72.6278C317.496 72.6278 317.526 72.6571 317.526 72.8118V76.988H324.274V40.9868H317.526V59.6647Z" fill="#000000"/>
<path d="M338.663 40.9855H331.914V76.9786H338.663V40.9855Z" fill="#000000"/>
<path d="M335.285 27.2451C332.903 27.2451 330.955 29.1758 330.955 31.5532V31.8252C330.955 34.1959 332.895 36.1333 335.285 36.1333C337.674 36.1333 339.614 34.2026 339.614 31.8252V31.5532C339.613 29.1838 337.674 27.2451 335.285 27.2451Z" fill="#000000"/>
<path d="M374.704 45.1616C374.704 45.4109 374.63 45.411 374.519 45.411C374.453 45.411 374.262 45.411 373.995 45.0363C371.171 41.6668 367.13 39.9575 362.004 39.9575C358.958 39.9575 356.06 40.6761 353.383 42.1002C350.698 43.4802 348.472 45.623 346.767 48.479C345.109 51.3271 344.267 54.8566 344.267 58.9754C344.267 63.0929 345.109 66.6236 346.775 69.4784C348.478 72.3265 350.706 74.4919 353.39 75.9226C356.067 77.3026 358.965 78 362.012 78C367.145 78 371.179 76.2893 374.018 72.9065C374.269 72.5545 374.468 72.5545 374.534 72.5545C374.637 72.5545 374.719 72.5545 374.719 72.8038V76.9799H381.467V27.3704H374.719V45.1616H374.704ZM371.711 49.4551C373.923 51.7005 375.044 54.9086 375.044 58.9821C375.044 63.0555 373.923 66.2929 371.703 68.5823C369.535 70.8277 366.614 71.9665 363.023 71.9665C359.431 71.9665 356.481 70.8291 354.276 68.5904C352.108 66.301 351.001 63.0635 351.001 58.99C351.001 54.9166 352.101 51.7018 354.269 49.4564C356.481 47.167 359.425 46.007 363.015 46.007C366.607 46.007 369.528 47.167 371.696 49.4564H371.711V49.4551Z" fill="#000000"/>
<path d="M395.784 27.3704H389.035V76.9799H395.784V27.3704Z" fill="#000000"/>
<path d="M64.5251 27.5084V77.0593H43.7966V62.467C43.7966 56.0558 38.6019 50.858 32.2193 50.858C25.8366 50.858 20.6419 56.0558 20.6419 62.467V77.0593H0V27.5084H12.0807V34.6679C12.0807 37.732 14.5673 40.2096 17.6177 40.2096C20.6681 40.2096 23.1547 37.732 23.1547 34.6679V27.5084H41.2758V34.6376C41.2758 37.7017 43.7624 40.1792 46.8128 40.1792C49.8631 40.1792 52.3497 37.7017 52.3497 34.6376V27.5084H64.5251Z" fill="#000000"/>
<path d="M29.4038 1.39V32.1367H34.7906V18.3518C34.7906 18.3518 36.167 15.5205 41.185 16.7694C47.8253 18.4223 56.0062 17.3022 61.258 7.79699C45.3435 13.0386 44.9172 -4.97368 29.4038 1.39Z" fill="#000000"/>
</svg>
