<svg
  width="155"
  height="37"
  viewBox="0 0 155 37"
  fill="none"
  xmlns="http://www.w3.org/2000/svg"
>
<path
    d="M27.2595 11.8686H34.9485C36.8341 11.8686 38.3353 12.3446 39.452 13.2966C40.5687 14.2302 41.1271 15.5392 41.1271 17.2234C41.1271 18.9809 40.3216 20.3173 38.7106 21.2327C38.6007 21.2876 38.5275 21.3425 38.4909 21.3975C38.4543 21.4341 38.436 21.4981 38.436 21.5897C38.436 21.7178 38.5092 21.8094 38.6556 21.8643C40.3948 22.56 41.2644 23.9879 41.2644 26.1481C41.2644 27.9056 40.6969 29.2603 39.5618 30.2123C38.4451 31.1643 36.9073 31.6403 34.9485 31.6403H27.2595V11.8686ZM34.6739 20.3814C35.8821 20.3814 36.7975 20.1434 37.4199 19.6674C38.0607 19.1915 38.381 18.4226 38.381 17.3608C38.381 16.2989 38.0607 15.53 37.4199 15.0541C36.7975 14.5781 35.8821 14.3401 34.6739 14.3401H30.0056V20.3814H34.6739ZM34.6739 29.1688C35.9554 29.1688 36.9165 28.9308 37.5572 28.4548C38.198 27.9605 38.5183 27.1459 38.5183 26.0108C38.5183 24.8758 38.198 24.0703 37.5572 23.5943C36.9165 23.1 35.9554 22.8529 34.6739 22.8529H30.0056V29.1688H34.6739ZM57.0478 31.6403H54.5764V30.075C54.5764 29.9469 54.5123 29.8828 54.3841 29.8828C54.3292 29.8828 54.2743 29.9102 54.2194 29.9652C54.1827 30.0018 54.137 30.0475 54.0821 30.1025C53.0569 31.4023 51.574 32.0522 49.6334 32.0522C47.8394 32.0522 46.4297 31.5487 45.4045 30.5418C44.3793 29.5349 43.8667 28.1161 43.8667 26.2854V17.3608H46.3382V25.8735C46.3382 27.1733 46.6677 28.1619 47.3268 28.8393C47.9858 29.5166 48.9378 29.8553 50.1827 29.8553C51.5923 29.8553 52.6724 29.4343 53.423 28.5921C54.1919 27.7317 54.5764 26.4594 54.5764 24.7751V17.3608H57.0478V31.6403ZM62.9583 17.3608V31.6403H60.4868V17.3608H62.9583ZM63.5075 11.8686V15.1639H59.9376V11.8686H63.5075ZM65.5799 24.5005C65.5799 22.8529 65.9094 21.4615 66.5685 20.3265C67.2458 19.1915 68.1154 18.3493 69.1772 17.8001C70.239 17.2326 71.3741 16.9488 72.5823 16.9488C74.6144 16.9488 76.1888 17.6171 77.3056 18.9535C77.3971 19.0816 77.4978 19.1457 77.6076 19.1457C77.7358 19.1457 77.7999 19.0725 77.7999 18.926V11.8686H80.2713V31.6403H77.7999V30.075C77.7999 29.9285 77.7358 29.8553 77.6076 29.8553C77.4978 29.8553 77.3971 29.9194 77.3056 30.0475C76.1888 31.384 74.6144 32.0522 72.5823 32.0522C71.3741 32.0522 70.239 31.7776 69.1772 31.2283C68.1154 30.6608 67.2458 29.8096 66.5685 28.6745C65.9094 27.5395 65.5799 26.1481 65.5799 24.5005ZM68.0513 24.5005C68.0513 26.1848 68.4999 27.5029 69.3969 28.4548C70.3123 29.3885 71.5114 29.8553 72.9943 29.8553C74.4771 29.8553 75.6671 29.3885 76.5641 28.4548C77.4795 27.5029 77.9372 26.1848 77.9372 24.5005C77.9372 22.8163 77.4795 21.5073 76.5641 20.5736C75.6671 19.6217 74.4771 19.1457 72.9943 19.1457C71.5114 19.1457 70.3123 19.6217 69.3969 20.5736C68.4999 21.5073 68.0513 22.8163 68.0513 24.5005ZM86.1625 11.8686V31.6403H83.691V11.8686H86.1625ZM88.6468 21.7544C88.6468 19.7041 89.0587 17.9008 89.8825 16.3447C90.7246 14.7886 91.9146 13.5895 93.4524 12.7474C94.9902 11.8869 96.7751 11.4567 98.8072 11.4567C100.675 11.4567 102.258 11.832 103.558 12.5826C104.876 13.3149 105.865 14.276 106.524 15.466C107.183 16.6559 107.54 17.9283 107.595 19.283H104.849C104.702 17.6537 104.125 16.3539 103.119 15.3836C102.112 14.4133 100.629 13.9282 98.6699 13.9282C97.2236 13.9282 95.9513 14.2577 94.8529 14.9168C93.7545 15.5575 92.9032 16.4729 92.299 17.6628C91.6949 18.8528 91.3928 20.2167 91.3928 21.7544C91.3928 23.3105 91.6858 24.6836 92.2716 25.8735C92.8757 27.0452 93.7453 27.9605 94.8803 28.6196C96.0154 29.2603 97.3701 29.5807 98.9445 29.5807C100.794 29.5807 102.167 29.1688 103.064 28.345C103.961 27.5212 104.409 26.4227 104.409 25.0497H97.1596V22.5783H107.155V24.528C107.155 26.8713 106.414 28.7111 104.931 30.0475C103.466 31.384 101.425 32.0522 98.8072 32.0522C96.7385 32.0522 94.9353 31.6311 93.3975 30.789C91.8597 29.9285 90.6789 28.7203 89.8551 27.1642C89.0495 25.6081 88.6468 23.8048 88.6468 21.7544ZM123.103 31.6403H120.632V30.075C120.632 29.9469 120.568 29.8828 120.44 29.8828C120.385 29.8828 120.33 29.9102 120.275 29.9652C120.238 30.0018 120.193 30.0475 120.138 30.1025C119.112 31.4023 117.63 32.0522 115.689 32.0522C113.895 32.0522 112.485 31.5487 111.46 30.5418C110.435 29.5349 109.922 28.1161 109.922 26.2854V17.3608H112.394V25.8735C112.394 27.1733 112.723 28.1619 113.382 28.8393C114.041 29.5166 114.993 29.8553 116.238 29.8553C117.648 29.8553 118.728 29.4343 119.479 28.5921C120.247 27.7317 120.632 26.4594 120.632 24.7751V17.3608H123.103V31.6403ZM129.014 17.3608V31.6403H126.542V17.3608H129.014ZM129.563 11.8686V15.1639H125.993V11.8686H129.563ZM131.635 24.5005C131.635 22.8529 131.965 21.4615 132.624 20.3265C133.301 19.1915 134.171 18.3493 135.233 17.8001C136.295 17.2326 137.43 16.9488 138.638 16.9488C140.67 16.9488 142.244 17.6171 143.361 18.9535C143.453 19.0816 143.553 19.1457 143.663 19.1457C143.791 19.1457 143.855 19.0725 143.855 18.926V11.8686H146.327V31.6403H143.855V30.075C143.855 29.9285 143.791 29.8553 143.663 29.8553C143.553 29.8553 143.453 29.9194 143.361 30.0475C142.244 31.384 140.67 32.0522 138.638 32.0522C137.43 32.0522 136.295 31.7776 135.233 31.2283C134.171 30.6608 133.301 29.8096 132.624 28.6745C131.965 27.5395 131.635 26.1481 131.635 24.5005ZM134.107 24.5005C134.107 26.1848 134.555 27.5029 135.453 28.4548C136.368 29.3885 137.567 29.8553 139.05 29.8553C140.533 29.8553 141.723 29.3885 142.62 28.4548C143.535 27.5029 143.993 26.1848 143.993 24.5005C143.993 22.8163 143.535 21.5073 142.62 20.5736C141.723 19.6217 140.533 19.1457 139.05 19.1457C137.567 19.1457 136.368 19.6217 135.453 20.5736C134.555 21.5073 134.107 22.8163 134.107 24.5005ZM152.218 11.8686V31.6403H149.747V11.8686H152.218Z"
    fill="#000000"
  />
<path
    fill-rule="evenodd"
    clip-rule="evenodd"
    d="M11.165 7.6233V14.5947H12.9157V18.6246H17.248V14.5947H20.2546V22.6544L15.526 31.5174L10.1273 31.4359L4.72864 31.5174L0 22.6544V14.5947H2.99299V18.6246H7.33896V14.5947H9.26912V0.947963C9.26912 0.424417 9.69354 0 10.2171 0C10.5948 0 10.9209 0.220863 11.0732 0.540475C11.5524 0.724161 12.0349 1.20942 12.5339 1.71114C13.1266 2.30713 13.7424 2.92634 14.4029 3.09083C15.0698 3.25693 15.5643 3.07933 16.1213 2.87926C16.7057 2.66936 17.359 2.43473 18.3525 2.54625C19.0976 2.63391 19.4926 3.12046 19.9343 3.66451C20.5216 4.38786 21.1914 5.21287 22.8762 5.33719L22.8655 5.3447C21.7868 6.10646 20.313 7.14723 18.0245 6.94369C17.3089 6.88194 16.8046 6.6512 16.3212 6.42998C15.6322 6.1147 14.9854 5.81874 13.8289 6.05876C12.5771 6.30988 11.9447 6.90249 11.4637 7.35314C11.3585 7.45166 11.2606 7.5434 11.165 7.6233Z"
    fill="#000000"
  />
</svg>
